<?xml version="1.0" encoding="utf-8"?>
<!-- Generator: Adobe Illustrator 23.1.0, SVG Export Plug-In . SVG Version: 6.00 Build 0)  -->
<svg version="1.1" xmlns="http://www.w3.org/2000/svg" xmlns:xlink="http://www.w3.org/1999/xlink" x="0px" y="0px"
	 viewBox="0 0 100 100" style="enable-background:new 0 0 100 100;" xml:space="preserve">
<style type="text/css">
	.st0{fill:#7FA8E6;}
	.st1{opacity:0.15;fill:#032060;}
	.st2{fill:url(#SVGID_1_);}
	.st3{fill:url(#SVGID_2_);}
	.st4{fill:url(#SVGID_3_);}
	.st5{fill:url(#SVGID_4_);}
	.st6{fill:url(#SVGID_5_);}
	.st7{fill:url(#SVGID_6_);}
	.st8{fill:url(#SVGID_7_);}
	.st9{fill:url(#SVGID_8_);}
	.st10{fill:url(#SVGID_9_);}
	.st11{fill:url(#SVGID_10_);}
	.st12{fill:url(#SVGID_11_);}
	.st13{fill:#4F9FDB;}
	.st14{fill:#FFFFFF;}
	.st15{fill:url(#SVGID_12_);}
	.st16{fill:#001A46;}
	.st17{fill:url(#SVGID_13_);}
	.st18{fill:url(#SVGID_14_);}
	.st19{fill:url(#SVGID_15_);}
	.st20{opacity:0.15;}
	.st21{fill:url(#SVGID_16_);}
	.st22{fill:url(#SVGID_17_);}
	.st23{fill:url(#SVGID_18_);}
	.st24{fill:url(#SVGID_19_);}
	.st25{fill:url(#SVGID_20_);}
	.st26{fill:url(#SVGID_21_);}
	.st27{fill:url(#SVGID_22_);}
	.st28{fill:url(#SVGID_23_);}
	.st29{fill:url(#SVGID_24_);}
	.st30{fill:url(#SVGID_25_);}
	.st31{fill:#032060;}
	.st32{fill:#2A4FDD;}
	.st33{fill:#A0B5FF;}
	.st34{fill:url(#SVGID_26_);}
	.st35{fill:url(#SVGID_27_);}
	.st36{fill:#0B2DAA;}
	.st37{fill:url(#SVGID_28_);}
	.st38{fill:#EBF2FD;}
	.st39{opacity:0.3;fill:none;stroke:url(#SVGID_29_);stroke-miterlimit:10;}
	.st40{fill:none;}
	.st41{fill:url(#SVGID_30_);}
	.st42{fill:url(#SVGID_31_);}
	.st43{fill:url(#SVGID_32_);}
	.st44{fill:url(#SVGID_33_);}
	.st45{fill:url(#SVGID_34_);}
	.st46{fill:url(#SVGID_35_);}
	.st47{fill:url(#SVGID_36_);}
	.st48{fill:url(#SVGID_37_);}
	.st49{fill:url(#SVGID_38_);}
	.st50{fill:#DCEEFF;}
	.st51{fill:url(#XMLID_31_);}
	.st52{fill:url(#XMLID_32_);}
	.st53{fill:url(#XMLID_33_);}
	.st54{fill:url(#XMLID_34_);}
	.st55{fill:url(#XMLID_35_);}
	.st56{fill:#031F60;}
	.st57{fill:#FFA8A7;}
	.st58{fill:#597BC6;}
	.st59{fill:#2D2979;}
	.st60{fill:#F28F8F;}
	.st61{fill:#C8DBDA;}
	.st62{fill:url(#SVGID_39_);}
	.st63{opacity:0.15;fill:#6B99D1;}
	.st64{fill:url(#XMLID_36_);}
	.st65{fill:url(#XMLID_37_);}
	.st66{fill:url(#XMLID_38_);}
	.st67{fill:url(#XMLID_39_);}
	.st68{fill:url(#XMLID_40_);}
	.st69{fill:url(#XMLID_41_);}
	.st70{fill:#EFF6FE;}
	.st71{fill:#AAD1FC;}
	.st72{fill:#AEB5B7;}
	.st73{fill:#C8E2FF;}
	.st74{fill:url(#SVGID_40_);}
	.st75{fill:url(#SVGID_41_);}
	.st76{fill:url(#SVGID_42_);}
	.st77{opacity:0.7;fill:#FFFFFF;}
	.st78{fill:url(#SVGID_43_);}
	.st79{fill:url(#SVGID_44_);}
	.st80{fill:url(#SVGID_45_);}
	.st81{fill:url(#SVGID_46_);}
	.st82{fill:url(#SVGID_47_);}
	.st83{fill:url(#SVGID_48_);}
	.st84{fill:url(#SVGID_49_);}
	.st85{fill:url(#SVGID_50_);}
	.st86{fill:url(#SVGID_51_);}
	.st87{fill:url(#SVGID_52_);}
	.st88{fill:url(#SVGID_53_);}
	.st89{fill:url(#SVGID_54_);}
	.st90{fill:url(#SVGID_55_);}
	.st91{fill:url(#SVGID_56_);}
	.st92{fill:url(#SVGID_57_);}
	.st93{fill:url(#SVGID_58_);}
	.st94{fill:url(#SVGID_59_);}
	.st95{fill:url(#SVGID_60_);}
	.st96{fill:url(#SVGID_61_);}
	.st97{fill:url(#SVGID_62_);}
	.st98{fill:url(#SVGID_63_);}
	.st99{fill:url(#SVGID_64_);}
	.st100{fill:url(#SVGID_65_);}
	.st101{fill:url(#SVGID_66_);}
	.st102{fill:url(#SVGID_67_);}
	.st103{fill:url(#SVGID_68_);}
	.st104{fill:url(#SVGID_69_);}
	.st105{fill:url(#SVGID_70_);}
	.st106{fill:url(#SVGID_71_);}
	.st107{fill:url(#SVGID_72_);}
	.st108{fill:url(#SVGID_73_);}
	.st109{fill:url(#SVGID_74_);}
	.st110{fill:url(#SVGID_75_);}
	.st111{fill:url(#SVGID_76_);}
	.st112{display:none;}
	.st113{display:inline;fill:none;stroke:#EF4136;stroke-miterlimit:10;}
</style>
<g id="Layer_1">
	<path class="st0" d="M49.87,50.25c-0.47,0-0.85,0.19-1.01,0.46H45.6v0.63h3.31c0.18,0.23,0.53,0.38,0.95,0.38
		c0.42,0,0.77-0.15,0.95-0.38h2.87v-0.63h-2.81C50.72,50.44,50.34,50.25,49.87,50.25z M49.87,51.1c-0.26,0-0.4-0.08-0.45-0.08
		c0,0-0.01,0-0.01,0c0.02-0.04,0.19-0.14,0.46-0.14c0.22,0,0.37,0.06,0.43,0.11C50.23,51.03,50.09,51.1,49.87,51.1z"/>
	<path class="st0" d="M49.87,69.41c-0.47,0-0.85,0.19-1.01,0.46H45.6v0.63h3.31c0.18,0.23,0.53,0.38,0.95,0.38
		c0.42,0,0.77-0.15,0.95-0.38h2.87v-0.63h-2.81C50.72,69.59,50.34,69.41,49.87,69.41z M49.87,70.25c-0.26,0-0.4-0.08-0.45-0.08
		c0,0-0.01,0-0.01,0c0.02-0.04,0.19-0.14,0.46-0.14c0.22,0,0.37,0.06,0.43,0.11C50.23,70.19,50.09,70.25,49.87,70.25z"/>
	<path class="st0" d="M49.87,76.62c-0.47,0-0.85,0.19-1.01,0.46H45.6v0.63h3.31c0.18,0.23,0.53,0.38,0.95,0.38
		c0.42,0,0.77-0.15,0.95-0.38h2.87v-0.63h-2.81C50.72,76.81,50.34,76.62,49.87,76.62z M49.87,77.47c-0.26,0-0.4-0.08-0.45-0.08
		c0,0-0.01,0-0.01,0c0.02-0.04,0.19-0.14,0.46-0.14c0.22,0,0.37,0.06,0.43,0.11C50.23,77.4,50.09,77.47,49.87,77.47z"/>
	<path class="st0" d="M50.5,43.15c-0.16-0.41-0.71-0.7-1.41-0.7s-1.24,0.29-1.41,0.7h-3.18v0.63h3.23c0.21,0.35,0.73,0.58,1.35,0.58
		s1.14-0.23,1.35-0.58h4.38v-0.63H50.5z M49.1,43.73c-0.54,0-0.83-0.23-0.83-0.32c0-0.09,0.29-0.32,0.83-0.32s0.83,0.23,0.83,0.32
		C49.93,43.5,49.64,43.73,49.1,43.73z"/>
	<path class="st0" d="M50.5,73.21c-0.16-0.41-0.71-0.7-1.41-0.7s-1.24,0.29-1.41,0.7h-3.18v0.63h3.23c0.21,0.35,0.73,0.58,1.35,0.58
		s1.14-0.23,1.35-0.58h4.38v-0.63H50.5z M49.1,73.78c-0.54,0-0.83-0.23-0.83-0.32c0-0.09,0.29-0.32,0.83-0.32s0.83,0.23,0.83,0.32
		C49.93,73.56,49.64,73.78,49.1,73.78z"/>
	<path class="st0" d="M50.5,79.12c-0.16-0.41-0.71-0.7-1.41-0.7s-1.24,0.29-1.41,0.7h-3.18v0.63h3.23c0.21,0.35,0.73,0.58,1.35,0.58
		s1.14-0.23,1.35-0.58h4.38v-0.63H50.5z M49.1,79.7c-0.54,0-0.83-0.23-0.83-0.32c0-0.09,0.29-0.32,0.83-0.32s0.83,0.23,0.83,0.32
		C49.93,79.47,49.64,79.7,49.1,79.7z"/>
	<path class="st1" d="M98.16,66.25L58.35,43.27c-0.38-0.22-0.8-0.41-1.25-0.56c-1.57-0.54-3.2,0.63-3.2,2.29v0.66v10.57v36.4
		c0,1.66,1.63,2.83,3.2,2.29c0.45-0.15,0.87-0.34,1.25-0.56l32.1-18.54l7.7-4.45c1.23-0.71,1.84-1.64,1.84-2.57c0,0,0,0,0,0
		C100,67.89,99.39,66.96,98.16,66.25z"/>
	<path class="st1" d="M43.38,43.27L3.58,66.25c-1.25,0.72-1.86,1.67-1.84,2.62c0.02,0.91,0.63,1.82,1.84,2.52l7.7,4.45l32.1,18.53
		c0.38,0.22,0.8,0.41,1.25,0.56c1.57,0.53,3.2-0.64,3.2-2.29v-36.4V45.66V45c0-1.66-1.63-2.83-3.2-2.29
		C44.19,42.86,43.77,43.05,43.38,43.27z"/>
	<linearGradient id="SVGID_1_" gradientUnits="userSpaceOnUse" x1="96.0301" y1="58.8392" x2="96.1667" y2="58.8392">
		<stop  offset="0" style="stop-color:#2A4FDD"/>
		<stop  offset="0.6863" style="stop-color:#102F88"/>
		<stop  offset="1" style="stop-color:#032060"/>
	</linearGradient>
	<polygon class="st2" points="96.1,58.84 96.1,58.84 96.1,58.84 	"/>
	<linearGradient id="SVGID_2_" gradientUnits="userSpaceOnUse" x1="0" y1="63.2364" x2="92.1967" y2="63.2364">
		<stop  offset="0" style="stop-color:#2A4FDD"/>
		<stop  offset="0.6863" style="stop-color:#102F88"/>
		<stop  offset="1" style="stop-color:#032060"/>
	</linearGradient>
	<path class="st3" d="M1.84,61.41C0.63,60.71,0.02,59.8,0,58.89h0v3.38c0,0.02,0,0.04,0,0.07v0h0c0.01,0.92,0.63,1.84,1.84,2.54
		l4.71,2.72l3-1.73L1.84,61.41z"/>
	<linearGradient id="SVGID_3_" gradientUnits="userSpaceOnUse" x1="6.0662" y1="63.2122" x2="98.263" y2="63.2122">
		<stop  offset="0" style="stop-color:#2A4FDD"/>
		<stop  offset="0.6863" style="stop-color:#102F88"/>
		<stop  offset="1" style="stop-color:#032060"/>
	</linearGradient>
	<path class="st4" d="M96.42,61.41l-7.7,4.45l3,1.73l4.71-2.72c1.23-0.71,1.84-1.64,1.84-2.57v-3.46
		C98.26,59.77,97.65,60.7,96.42,61.41z"/>
	<linearGradient id="SVGID_4_" gradientUnits="userSpaceOnUse" x1="5.484175e-06" y1="77.3603" x2="92.1967" y2="77.3603">
		<stop  offset="0" style="stop-color:#2A4FDD"/>
		<stop  offset="0.6863" style="stop-color:#102F88"/>
		<stop  offset="1" style="stop-color:#032060"/>
	</linearGradient>
	<path class="st5" d="M46.1,87.85v-2.39c-1.61,0-3.22-0.35-4.45-1.06L9.54,65.86l-3,1.73l35.1,20.26c0.95,0.55,2.13,0.88,3.36,1.01
		C45.59,88.92,46.1,88.44,46.1,87.85z"/>
	<linearGradient id="SVGID_5_" gradientUnits="userSpaceOnUse" x1="6.0662" y1="77.3598" x2="98.263" y2="77.3598">
		<stop  offset="0" style="stop-color:#2A4FDD"/>
		<stop  offset="0.6863" style="stop-color:#102F88"/>
		<stop  offset="1" style="stop-color:#032060"/>
	</linearGradient>
	<path class="st6" d="M56.61,84.39c-1.23,0.71-2.84,1.06-4.45,1.06v2.39c0,0.59,0.51,1.07,1.09,1.01c1.23-0.12,2.4-0.46,3.35-1.01
		l35.1-20.27l-3-1.73L56.61,84.39z"/>
	<path class="st1" d="M56.61,84.39l32.1-18.54l-32.1-18.53c-1.23-0.71-2.84-1.06-4.45-1.06v39.2C53.77,85.45,55.38,85.1,56.61,84.39
		z"/>
	<linearGradient id="SVGID_6_" gradientUnits="userSpaceOnUse" x1="-5.9719" y1="60.5687" x2="110.3011" y2="60.5687">
		<stop  offset="0" style="stop-color:#2A4FDD"/>
		<stop  offset="0.6863" style="stop-color:#102F88"/>
		<stop  offset="1" style="stop-color:#032060"/>
	</linearGradient>
	<path class="st7" d="M94.88,58.84L56.61,36.75c-1.23-0.71-2.84-1.06-4.45-1.06v49.77c1.61,0,3.22-0.35,4.45-1.06l32.1-18.54
		l7.7-4.45c1.23-0.71,1.84-1.64,1.84-2.57c0,0,0,0,0,0L94.88,58.84z"/>
	<linearGradient id="SVGID_7_" gradientUnits="userSpaceOnUse" x1="52.1646" y1="58.8946" x2="98.263" y2="58.8946">
		<stop  offset="0" style="stop-color:#EBF2FD"/>
		<stop  offset="1" style="stop-color:#A0B5FF"/>
	</linearGradient>
	<path class="st8" d="M96.42,56.27L56.61,33.29c-0.8-0.46-1.77-0.78-2.79-0.94c-0.87-0.14-1.66,0.56-1.66,1.44v1.89v10.57v39.2
		c1.61,0,3.22-0.35,4.45-1.06l32.1-18.54l7.7-4.45c1.23-0.71,1.84-1.64,1.84-2.57c0,0,0,0,0,0C98.26,57.91,97.65,56.98,96.42,56.27z
		"/>
	<path class="st1" d="M41.65,47.32L9.54,65.86l32.1,18.53c1.23,0.71,2.84,1.06,4.45,1.06v-39.2C44.49,46.26,42.88,46.61,41.65,47.32
		z"/>
	<linearGradient id="SVGID_8_" gradientUnits="userSpaceOnUse" x1="-12.0323" y1="60.5687" x2="104.229" y2="60.5687">
		<stop  offset="0" style="stop-color:#2A4FDD"/>
		<stop  offset="0.6863" style="stop-color:#102F88"/>
		<stop  offset="1" style="stop-color:#032060"/>
	</linearGradient>
	<path class="st9" d="M41.65,36.75L3.3,58.89l-3.3,0c0.02,0.91,0.63,1.82,1.84,2.52l7.7,4.45l32.1,18.53
		c1.23,0.71,2.84,1.06,4.45,1.06V35.68C44.49,35.68,42.88,36.04,41.65,36.75z"/>
	<linearGradient id="SVGID_9_" gradientUnits="userSpaceOnUse" x1="8.551488e-04" y1="58.8944" x2="46.0984" y2="58.8944">
		<stop  offset="0" style="stop-color:#EBF2FD"/>
		<stop  offset="1" style="stop-color:#A0B5FF"/>
	</linearGradient>
	<path class="st10" d="M41.65,33.29L1.84,56.27C0.59,56.99-0.02,57.94,0,58.89c0.02,0.91,0.63,1.82,1.84,2.52l7.7,4.45l32.1,18.53
		c1.23,0.71,2.84,1.06,4.45,1.06v-39.2V35.68v-1.89c0-0.88-0.78-1.58-1.66-1.44C43.42,32.51,42.45,32.82,41.65,33.29z"/>
	<g id="XMLID_3418_">
		<path id="XMLID_4155_" class="st63" d="M5.18,59.45L19.81,51c0.9-0.52,2.37-0.52,3.27,0l14.63,8.45c0.9,0.52,0.9,1.37,0,1.89
			l-14.63,8.45c-0.9,0.52-2.37,0.52-3.27,0L5.18,61.34C4.27,60.81,4.27,59.97,5.18,59.45z"/>
		<linearGradient id="XMLID_31_" gradientUnits="userSpaceOnUse" x1="4.4984" y1="43.4054" x2="38.3856" y2="43.4054">
			<stop  offset="0" style="stop-color:#EBF2FD"/>
			<stop  offset="1" style="stop-color:#A0B5FF"/>
		</linearGradient>
		<path id="XMLID_3430_" class="st51" d="M5.18,42.46l14.63-8.45c0.9-0.52,2.37-0.52,3.27,0l14.63,8.45c0.9,0.52,0.9,1.37,0,1.89
			L23.08,52.8c-0.9,0.52-2.37,0.52-3.27,0L5.18,44.35C4.27,43.83,4.27,42.98,5.18,42.46z"/>
		<g id="XMLID_3425_">
			<path class="st14" d="M21.44,34.62c0.44,0,0.85,0.09,1.14,0.26l14.63,8.45c0.05,0.03,0.09,0.06,0.12,0.08
				c-0.03,0.02-0.07,0.05-0.12,0.08l-14.63,8.45c-0.28,0.16-0.7,0.26-1.14,0.26s-0.85-0.09-1.14-0.26L5.68,43.48
				c-0.05-0.03-0.09-0.05-0.12-0.08c0.03-0.02,0.07-0.05,0.12-0.08l14.63-8.45C20.59,34.72,21,34.62,21.44,34.62 M21.44,33.62
				c-0.59,0-1.18,0.13-1.64,0.39L5.18,42.46c-0.9,0.52-0.9,1.37,0,1.89l14.63,8.45c0.45,0.26,1.04,0.39,1.64,0.39
				s1.18-0.13,1.64-0.39l14.63-8.45c0.9-0.52,0.9-1.37,0-1.89l-14.63-8.45C22.63,33.75,22.03,33.62,21.44,33.62L21.44,33.62z"/>
		</g>
		<linearGradient id="XMLID_32_" gradientUnits="userSpaceOnUse" x1="4.4985" y1="55.6792" x2="21.4421" y2="55.6792">
			<stop  offset="0" style="stop-color:#EBF2FD"/>
			<stop  offset="1" style="stop-color:#A0B5FF"/>
		</linearGradient>
		<path id="XMLID_3422_" class="st52" d="M4.5,58.17c0.01,0.39,0.26,0.7,0.68,0.94l14.63,8.45c0.42,0.24,0.96,0.38,1.64,0.39V53.19
			c-0.64,0-1.19-0.14-1.64-0.39L5.18,44.35c-0.36-0.21-0.68-0.52-0.68-0.94V58.17z"/>
		<linearGradient id="XMLID_33_" gradientUnits="userSpaceOnUse" x1="21.4421" y1="55.6792" x2="38.3858" y2="55.6792">
			<stop  offset="0" style="stop-color:#A0B5FF"/>
			<stop  offset="1" style="stop-color:#81ADDF"/>
		</linearGradient>
		<path id="XMLID_3419_" class="st53" d="M38.39,58.17c-0.01,0.39-0.26,0.7-0.68,0.94l-14.63,8.45c-0.42,0.24-0.96,0.38-1.64,0.39
			V53.19c0.64,0,1.19-0.14,1.64-0.39l14.63-8.45c0.36-0.21,0.68-0.52,0.68-0.94V58.17z"/>
	</g>
	<path id="XMLID_4187_" class="st63" d="M94.5,55.63l-14.63-8.45c-0.9-0.52-2.37-0.52-3.27,0l-14.63,8.45c-0.9,0.52-0.9,1.37,0,1.89
		l14.63,8.45c0.9,0.52,2.37,0.52,3.27,0l14.63-8.45C95.4,57,95.4,56.15,94.5,55.63z"/>
	<path id="XMLID_195_" class="st63" d="M72.47,63.79l-5.14-2.97c-3.49-2.01-8.31-2.5-10.76-1.08c-2.45,1.42-1.62,4.2,1.87,6.21
		l5.14,2.97c3.49,2.01,8.31,2.5,10.76,1.08C76.79,68.58,75.96,65.8,72.47,63.79z"/>
	<g id="XMLID_449_">
		<linearGradient id="XMLID_34_" gradientUnits="userSpaceOnUse" x1="60.9559" y1="40.1507" x2="94.8433" y2="40.1507">
			<stop  offset="0" style="stop-color:#EBF2FD"/>
			<stop  offset="1" style="stop-color:#A0B5FF"/>
		</linearGradient>
		<path id="XMLID_3415_" class="st54" d="M61.63,39.21l14.63-8.45c0.9-0.52,2.37-0.52,3.27,0l14.63,8.45c0.9,0.52,0.9,1.37,0,1.89
			l-14.63,8.45c-0.9,0.52-2.37,0.52-3.27,0L61.63,41.1C60.73,40.57,60.73,39.73,61.63,39.21z"/>
		<g id="XMLID_3221_">
			<path class="st14" d="M77.9,31.37c0.44,0,0.85,0.09,1.14,0.26l14.63,8.45c0.05,0.03,0.09,0.06,0.12,0.08
				c-0.03,0.02-0.07,0.05-0.12,0.08l-14.63,8.45c-0.28,0.16-0.7,0.26-1.14,0.26c-0.44,0-0.85-0.09-1.14-0.26l-14.63-8.45
				c-0.05-0.03-0.09-0.06-0.12-0.08c0.03-0.02,0.07-0.05,0.12-0.08l14.63-8.45C77.05,31.46,77.46,31.37,77.9,31.37 M77.9,30.37
				c-0.59,0-1.18,0.13-1.64,0.39l-14.63,8.45c-0.9,0.52-0.9,1.37,0,1.89l14.63,8.45c0.45,0.26,1.04,0.39,1.64,0.39
				c0.59,0,1.18-0.13,1.64-0.39l14.63-8.45c0.9-0.52,0.9-1.37,0-1.89l-14.63-8.45C79.08,30.5,78.49,30.37,77.9,30.37L77.9,30.37z"/>
		</g>
		<linearGradient id="XMLID_35_" gradientUnits="userSpaceOnUse" x1="60.9558" y1="52.4244" x2="77.8997" y2="52.4244">
			<stop  offset="0" style="stop-color:#EBF2FD"/>
			<stop  offset="1" style="stop-color:#A0B5FF"/>
		</linearGradient>
		<path id="XMLID_478_" class="st55" d="M60.96,54.92c0.01,0.39,0.26,0.7,0.68,0.94l14.63,8.45c0.42,0.24,0.96,0.38,1.64,0.39V49.93
			c-0.64,0-1.19-0.14-1.64-0.39L61.63,41.1c-0.36-0.21-0.68-0.52-0.68-0.94V54.92z"/>
		<linearGradient id="XMLID_36_" gradientUnits="userSpaceOnUse" x1="77.8997" y1="52.4244" x2="94.8436" y2="52.4244">
			<stop  offset="0" style="stop-color:#A0B5FF"/>
			<stop  offset="1" style="stop-color:#81ADDF"/>
		</linearGradient>
		<path id="XMLID_450_" class="st64" d="M94.84,54.92c-0.01,0.39-0.26,0.7-0.68,0.94l-14.63,8.45c-0.42,0.24-0.96,0.38-1.64,0.39
			V49.93c0.64,0,1.19-0.14,1.64-0.39l14.63-8.45c0.36-0.21,0.68-0.52,0.68-0.94V54.92z"/>
	</g>
	<g>
		<path id="XMLID_3577_" class="st57" d="M57.8,31.14c0.55,0.01,1.03-0.19,1.81-0.11c0.68,0.07,1.13,0.09,1.76-0.03
			c0.63-0.11,2.29-1.53,3.63-2.84c1.57-1.55,2.95-3.85,3.32-5.03c0.63-2,1.55-6.09,2.01-7.48c0.46-1.38,1.14-1.68,1.97-1.84
			c0.98-0.19,1.64,0.17,1.23,2.22c-0.41,2.06-1.34,6-2.6,8.56c-0.61,1.25-1.76,3.15-3.77,5.16c-1.41,1.4-2.73,2.25-4.42,3.3
			c-0.46,0.29-0.73,0.61-1.54,1.26c-0.81,0.65-1.9,1.2-2.76,1.33c-0.86,0.13-1.19,0.03-1.29-0.13c-0.13-0.2,0.01-0.38,0.4-0.49
			c0.39-0.1,1.04-0.21,1.77-0.67c0,0-0.83,0.27-1.35,0.38c-0.51,0.11-1.03,0.15-1.39,0.12c-0.45-0.03-0.8-0.6-0.41-0.71
			c0.39-0.11,0.72-0.1,1.47-0.28c0.69-0.17,1.16-0.42,1.16-0.42s-0.83,0.15-1.55,0.15c-0.72,0-1.02-0.15-1.21-0.26
			c-0.19-0.11-0.28-0.5,0.21-0.58c0.45-0.07,1.04,0.04,1.88-0.23c0.61-0.19,1.01-0.41,0.9-0.48c-0.11-0.07-0.46,0.07-1-0.02
			c-0.52-0.09-0.98-0.49-0.91-0.78C57.17,30.96,57.25,31.13,57.8,31.14z"/>
		<path id="XMLID_3576_" class="st33" d="M72.38,13.59c-0.99-0.19-1.84,0.71-2.31,2.13c-0.47,1.43-1.13,4.51-1.54,5.58
			c-0.41,1.07-0.54,1.94-0.54,1.94s1.68,1.43,3.55,1.06c0,0,1.23-3.22,1.79-5.93C73.89,15.67,74.15,13.94,72.38,13.59z"/>
		<path id="XMLID_3575_" class="st58" d="M69.69,23.76c-1.01-0.32-1.6-1.02-1.6-1.02l0.09-0.36c0,0-0.19,0-0.5,0.83
			c-0.31,0.83-0.37,1.38-0.24,1.57c0.78,1.11,3.08,1.61,3.53,1c0.31-0.43,1.06-1.62,0.83-2.16l-0.15,0.39
			C71.65,24.01,70.93,24.14,69.69,23.76z"/>
		<path id="XMLID_3572_" class="st59" d="M63.87,57.47c0,0,0.07,0.56,0.19,1.01c0.12,0.46,0.23,1.21,0.15,1.58
			c-0.08,0.37-1.14,0.9-1.72,0.97c-0.59,0.08-1.49,0.7-1.82,1.12c-0.48,0.6-1.74,1.05-2.56,0.96c-0.82-0.09-1.74-0.29-1.94-0.62
			c-0.2-0.33,0.08-0.7,1.79-1.92c1.72-1.22,2.86-1.96,3.4-3.1L63.87,57.47z"/>
		<path id="XMLID_3569_" class="st59" d="M70.09,69.08c-0.44,0.62-1.17,0.91-1.92,1.02c-0.39,0.06-0.79,0.05-1.19,0.05
			c-0.42-0.01-1.06-0.25-1.02-0.77c0.01-0.17,0.12-0.31,0.22-0.44c0.67-0.87,1.39-1.7,2.01-2.61c0.69-1.03,1.38-2,1.63-3.54
			l2.57,0.03c0.01,0.22,0.07,0.52,0.11,0.8c0.04,0.29,0.12,0.57,0.18,0.85c0.13,0.56,0.21,1.14-0.07,1.67
			c-0.22,0.39-0.64,0.61-0.99,0.9C70.96,67.57,70.58,68.37,70.09,69.08z"/>
		<path id="XMLID_3530_" class="st0" d="M82.23,35.04c0.93,5.82-2.06,7.53-4.9,9.71c-2.3,1.77-4.58,3.07-4.58,3.07
			s0.26,1.37,0.29,4.24c0.02,2.53-0.64,10.74-0.64,10.74s-1.39,0.72-2.57-0.03c0,0-0.87-6.23-1.28-9.4
			c-0.57-4.46-1.07-6.47-0.85-7.4c0.19-0.82,3.88-4.91,4.77-6.28l-8.23,4.78c0,0,0.28,2.1,0.24,3.66c-0.09,3.43-0.61,9.35-0.61,9.35
			s-1.36,0.98-2.52,0.02c0,0-2.58-13.95-2.58-15.18c0-1.87,7.54-6.55,9.22-7.66c1.36-0.9,2.88-2.06,2.88-2.06L82.23,35.04z"/>
		<path id="XMLID_3528_" class="st58" d="M72.47,39.68c0,0-1.32-0.98-1.88-2.68c0,0,0.07,1.15,0.29,2.04
			c0.22,0.89-6.65,5.43-6.65,5.43L72.47,39.68z"/>
		<g>
			<path class="st57" d="M80.05,16.89c-0.49-0.37-1.25-0.91-1.3-1.1c-0.06-0.25,0.08-3.02,0.08-3.02s-4.47,1.55-5.01,1.62
				c-0.23,0.03-0.48,0.33-0.69,0.77C73.26,15.94,74.14,17.76,80.05,16.89z"/>
			<path class="st14" d="M80.05,16.89c-5.91,0.87-6.8-0.96-6.91-1.72c-0.28,0.6-0.48,1.48-0.45,2.46c0.06,1.72,3.56,3.05,4.66,2.55
				c1.1-0.51,3.38-2.75,3.02-3.04C80.3,17.08,80.19,16.99,80.05,16.89z"/>
		</g>
		<path id="XMLID_3525_" class="st60" d="M74.87,15.95c-0.36-0.34,0.43-1.4,0.68-1.9c1.15-0.35,3.28-1.28,3.28-1.28
			s-0.03,0.64-0.05,1.09l0,0c0,0.52-0.33,1.05-0.74,1.37c-0.31,0.24-0.72,0.52-1.24,0.72C76.35,16.12,75.43,16.47,74.87,15.95z"/>
		<path id="XMLID_3524_" class="st58" d="M79.15,16.01c0,0-2.01,3-4.82,3.28c-0.89-0.87-0.97-3.98,0.26-4.97c0,0-1.13-0.91-1.9-0.73
			c0,0-1.22,0.63-1.73,2.21c-0.52,1.58-1.04,3.48-0.99,6.42c0.06,3.25,0.37,12.05,0.32,10.5c0,0-0.36,1.56,2.18,2.98
			c2.54,1.42,4.88,2.07,6.6,1.67c1.42-0.33,2.94-1.2,3.16-2.33c-0.13-2.06-0.57-5.51-0.22-8.1c0.34-2.59,0.31-4.75,0.46-6.84
			c0.14-2.1-0.28-2.06-1.33-2.8C79.72,16.28,79.15,16.01,79.15,16.01z"/>
		<path id="XMLID_3523_" class="st33" d="M74.33,19.29c0,0-0.24-1.33-0.24-2.05c0.07-0.96,0.78-2.22,0.78-2.22v-0.78
			c0,0-0.55,0.09-1.03,0.67c-0.47,0.58-1.2,1.83-1.02,3.05C72.82,17.97,73.18,18.68,74.33,19.29z"/>
		<path id="XMLID_3522_" class="st58" d="M74.33,19.29c-0.2-0.4-0.59-1.73-0.78-1.93c-0.37-0.12-0.72,0.61-0.72,0.61
			s0.01,0.77,0.48,1.21C73.77,19.62,74.33,19.29,74.33,19.29z"/>
		<path id="XMLID_3521_" class="st61" d="M73.55,17.36c0.19,0.2,0.58,1.53,0.78,1.93c0,0-0.22-0.37-0.43-0.64
			c-0.21-0.27-0.46-0.78-1.08-0.68C72.82,17.97,73.18,17.24,73.55,17.36z"/>
		<path id="XMLID_3520_" class="st31" d="M80.01,6.71c0,0,0.27-0.85-0.83-1.67c-1.3-0.98-3.12-0.77-5.05,0
			c-1.23,0.49-3.14-0.11-2.77,1.3c0.54,2.07,4.53,2.24,6.27,0.8C77.76,7.1,79.02,6.49,80.01,6.71z"/>
		<path id="XMLID_3519_" class="st33" d="M78.74,15.04c-0.05,0.43-2.31,2.11-2.85,2.32c-0.54,0.22-1.56,1.92-1.56,1.92
			c0.8-0.14,1.47,0.19,2.05,0.8c0,0,3.21-1.35,3.73-3.51c0,0-0.6-1.16-0.69-1.45c-0.09-0.3-0.33-0.64-0.67-0.65L78.74,15.04z"/>
		<path id="XMLID_3518_" class="st58" d="M76.38,20.09c0,0-0.24-1.65-0.58-1.8c-0.34-0.15-1.47,1-1.47,1
			C74.78,19.68,75.39,20.06,76.38,20.09z"/>
		<path id="XMLID_3517_" class="st61" d="M75.8,18.29c0.34,0.15,0.58,1.8,0.58,1.8s-0.9-0.83-1.18-0.91
			c-0.28-0.08-0.87,0.11-0.87,0.11S75.46,18.13,75.8,18.29z"/>
		<path id="XMLID_3310_" class="st57" d="M72.56,8.63L72.56,8.63c0.33-2.15,1.88-3.79,4.1-3.66c2.36,0.13,4.17,2.15,4.04,4.52
			c-0.08,1.38-0.8,2.56-1.86,3.28c0,0-0.2,0.78-0.34,0.94c-0.79,0.92-3.16,1.49-3.84,1.39c-0.88-0.13-1.35-0.49-1.77-1.45
			C72.14,11.96,72.37,9.7,72.56,8.63z"/>
		<path id="XMLID_3305_" class="st31" d="M72.88,6.9c0.92-1.39,2.6-2.22,4.44-1.84c1.81,0.38,3.2,1.94,3.37,3.78
			c0.15,1.65-0.63,3.09-1.85,3.93c0.05-0.15,1.17-1.82,0.01-2.19c-0.18,0.21-0.23,0.54-0.24,0.88c0,0-0.57-0.05-0.44-0.72
			c0.04-0.19,0.07-0.36,0.1-0.51c0.1-0.52-0.03-1.05-0.33-1.49c-0.24-0.35-0.44-0.85-0.3-1.4c0,0-1.43,0.64-3.25,0.25
			C73.61,7.43,73.09,7.14,72.88,6.9z"/>
		<path id="XMLID_3218_" class="st57" d="M80.57,41.19c0.43-0.34,0.71-0.78,1.36-1.21c0.57-0.38,0.8-0.55,1.15-1.08
			c0.38-0.58,0.79-2.53,0.99-4.4c0.23-2.2-0.25-5.02-0.62-6.2c-0.76-2.4-2.36-5.63-2.89-6.99c-0.52-1.36-0.19-2.02,0.36-2.68
			c0.64-0.77,1.76-0.73,2.74,1.13c0.98,1.85,2.38,5.3,3.03,8.09c0.32,1.35,0.64,3.55,0.35,6.38c-0.2,1.97-0.69,3.47-1.33,5.35
			c-0.17,0.51-0.18,0.94-0.39,1.95c-0.22,1.02-0.71,2.14-1.3,2.78c-0.59,0.64-0.9,0.78-1.08,0.72c-0.23-0.08-0.23-0.31,0-0.63
			c0.23-0.32,0.68-0.82,0.94-1.64c0,0-0.48,0.73-0.8,1.15c-0.32,0.41-0.7,0.77-1,0.98c-0.37,0.26-1,0.04-0.77-0.29
			c0.23-0.33,0.49-0.53,0.96-1.15c0.43-0.56,0.63-1.06,0.63-1.06s-0.55,0.65-1.1,1.1c-0.56,0.45-0.88,0.53-1.1,0.56
			c-0.22,0.04-0.54-0.21-0.2-0.58c0.3-0.34,0.83-0.63,1.31-1.36c0.35-0.53,0.52-0.96,0.39-0.94c-0.13,0.02-0.31,0.34-0.79,0.62
			c-0.46,0.26-1.07,0.24-1.19-0.03C80.11,41.48,80.14,41.53,80.57,41.19z"/>
		<path id="XMLID_3132_" class="st33" d="M81.02,18.16c-0.91,0.43-1.06,1.66-0.6,3.09c0.46,1.43,1.77,4.31,2.07,5.41
			c0.31,1.1,0.72,1.88,0.72,1.88s2.2,0.16,3.49-1.25c0,0-0.92-3.32-2.08-5.84C83.47,18.94,82.65,17.39,81.02,18.16z"/>
		<path id="XMLID_3127_" class="st58" d="M84.88,27.94c-1,0.34-1.89,0.12-1.89,0.12l-0.14-0.34c0,0-0.16,0.11,0.09,0.96
			c0.24,0.85,0.52,1.33,0.73,1.41c1.28,0.44,3.44-0.53,3.44-1.28c0-0.53-0.11-1.93-0.61-2.23l0.11,0.4
			C86.61,26.99,86.11,27.52,84.88,27.94z"/>
		<path id="XMLID_3124_" class="st57" d="M78.83,12.75c0,0,0.1,0.23,0.52,0.25c0.78,0.04,1.69-1.41,1.06-2.39
			c-0.39-0.61-1.28-0.4-1.57-0.03L78.83,12.75z"/>
		<g id="XMLID_2179_">
			<g id="XMLID_2643_">
				<path id="XMLID_2979_" class="st70" d="M59.63,38.15l6.65-3.84c0.12-0.07,0.26-0.07,0.38,0l11.67,6.74L71.49,45L59.63,38.15z"/>
				<polygon id="XMLID_2974_" class="st71" points="71.55,44.44 75.14,42.37 64.65,36.31 61.04,38.37 				"/>
				<polygon id="XMLID_2971_" class="st72" points="73.31,38.68 73.25,38.72 71.49,39.73 68.36,37.93 68.3,37.89 70.12,36.84 				
					"/>
				<polygon id="XMLID_2970_" class="st71" points="73.25,38.72 71.49,39.73 68.36,37.93 70.12,36.91 				"/>
				<path id="XMLID_2964_" class="st73" d="M78.33,41.05v0.16c0,0.23-0.12,0.44-0.32,0.56l-6.2,3.58c-0.1,0.06-0.21,0.09-0.32,0.09
					c-0.11,0-0.22-0.03-0.32-0.09l-11.22-6.48c-0.2-0.11-0.32-0.33-0.32-0.56v-0.16L71.49,45L78.33,41.05z"/>
				<path id="XMLID_2959_" class="st71" d="M71.49,45v0.43c-0.11,0-0.22-0.03-0.32-0.09l-11.22-6.48c-0.2-0.11-0.32-0.33-0.32-0.56
					v-0.16L71.49,45z"/>
				<path id="XMLID_2958_" class="st70" d="M71.31,45.1c-0.21,0.08-0.45,0.07-0.65-0.05L59.49,38.6c-0.2-0.11-0.33-0.31-0.37-0.53
					l-1.22-7.29c-0.01-0.04-0.01-0.08-0.01-0.12c0-0.2,0.08-0.4,0.22-0.54l11.61,6.7c0.15,0.08,0.24,0.23,0.27,0.39L71.31,45.1z"/>
				<path id="XMLID_2650_" class="st73" d="M71.49,45l-0.08,0.04c-0.03,0.02-0.07,0.04-0.1,0.05l-1.32-7.89
					c-0.03-0.17-0.13-0.31-0.27-0.39l-11.61-6.7c0.04-0.04,0.1-0.08,0.15-0.12l11.63,6.71c0.15,0.08,0.24,0.23,0.27,0.39L71.49,45z"
					/>
				<path id="XMLID_2646_" class="st71" d="M65.02,38.36c-0.08-0.49-0.59-1.14-1.13-1.45c-0.54-0.31-0.91-0.17-0.83,0.32
					c0.08,0.49,0.59,1.14,1.13,1.45C64.73,39,65.1,38.85,65.02,38.36z"/>
			</g>
		</g>
	</g>
	<g>
		<path id="XMLID_283_" class="st63" d="M27.49,68l4.69-2.71c3.18-1.84,7.58-2.28,9.82-0.99c2.24,1.29,1.48,3.83-1.71,5.67
			l-4.69,2.71c-3.18,1.84-7.58,2.28-9.82,0.99C23.54,72.38,24.31,69.84,27.49,68z"/>
		<path id="XMLID_17_" class="st70" d="M33.44,59.2c0,0-0.07,0.56-0.19,1.01c-0.12,0.46-0.23,1.21-0.15,1.58
			c0.08,0.37,1.14,0.9,1.72,0.97c0.59,0.08,1.49,0.7,1.82,1.12c0.48,0.6,1.74,1.05,2.56,0.96c0.82-0.09,1.74-0.29,1.94-0.62
			c0.2-0.33-0.08-0.7-1.79-1.92c-1.72-1.22-2.86-1.96-3.4-3.1L33.44,59.2z"/>
		<path id="XMLID_12_" class="st70" d="M31.4,69.08c0.44,0.62,1.17,0.91,1.92,1.02c0.39,0.06,0.79,0.05,1.19,0.05
			c0.42-0.01,1.06-0.25,1.02-0.77c-0.01-0.17-0.12-0.31-0.22-0.44c-0.67-0.87-1.39-1.7-2.01-2.61c-0.69-1.03-1.38-2-1.63-3.54
			l-2.57,0.03c-0.01,0.22-0.07,0.52-0.11,0.8c-0.04,0.29-0.12,0.57-0.18,0.85c-0.13,0.56-0.21,1.14,0.07,1.67
			c0.22,0.39,0.64,0.61,0.99,0.9C30.53,67.57,30.91,68.37,31.4,69.08z"/>
		<path id="XMLID_416_" class="st57" d="M42.71,29.27c-0.39,0.25-0.83,0.31-1.36,0.7c-0.47,0.35-0.78,0.55-1.28,0.75
			c-0.5,0.19-2.19,0.05-3.73-0.33c-1.82-0.44-3.91-1.61-4.74-2.24c-1.8-1.36-3.63-3.44-4.32-4.26c-0.83-0.98-1.93-1.11-2.61-0.86
			c-0.8,0.29-1.04,0.86,0.16,2.17c1.2,1.31,3.54,3.6,5.57,4.91c0.99,0.64,2.57,1.56,4.9,2.13c1.63,0.4,3,0.52,4.68,0.55
			c0.46,0.01,0.79,0.13,1.67,0.24c0.87,0.12,1.9,0.04,2.58-0.24c0.68-0.28,0.88-0.49,0.88-0.66c0-0.2-0.18-0.27-0.5-0.18
			c-0.32,0.09-0.85,0.3-1.57,0.28c0,0,0.72-0.17,1.14-0.31c0.42-0.14,0.81-0.34,1.06-0.52c0.31-0.22,0.32-0.78-0.01-0.7
			c-0.33,0.09-0.56,0.24-1.19,0.44c-0.57,0.18-1.02,0.2-1.02,0.2s0.67-0.25,1.19-0.57c0.52-0.32,0.67-0.55,0.76-0.72
			c0.09-0.16-0.01-0.49-0.41-0.32c-0.35,0.15-0.74,0.48-1.46,0.65c-0.52,0.13-0.91,0.14-0.86,0.05c0.05-0.1,0.36-0.15,0.72-0.45
			c0.34-0.29,0.5-0.78,0.32-0.96C43.08,28.86,43.1,29.02,42.71,29.27z"/>
		<path id="XMLID_321_" class="st58" d="M24.57,22.81c0.74-0.31,1.94-0.06,3.14,1.42c1.2,1.48,3.5,3.6,4.94,4.38
			c1.44,0.78,3.25,1.77,5.95,2.15c0,0,0.61,0.79-0.1,1.97c0,0-2.85,0.05-5.98-1.34c-3.13-1.39-5.94-4.14-7.21-5.37
			C24.05,24.79,23.18,23.39,24.57,22.81z"/>
		<path id="XMLID_194_" class="st59" d="M20.71,12.83c1.64-0.82,3.26-0.83,4.62,0c1.36,0.83,1.29,6.13-0.34,7.2
			C23.36,21.1,20.71,12.83,20.71,12.83z"/>
		<path id="XMLID_185_" class="st59" d="M21.3,12.91c0,0-1.12-0.7-2.16,0.31c-1.83,1.79-0.59,3.8-0.55,6.52
			c0.04,2.4-3.45,4.56-0.45,5.86c2.6,1.13,3.22-1.22,3.22-5.52C21.37,15.79,21.3,12.91,21.3,12.91z"/>
		<path id="XMLID_184_" class="st59" d="M17.89,39.43c-1.14,3.08-0.96,5.61,3.08,7.86c2.14,1.19,7.18,3.83,7.18,3.83
			s-0.45,1.3-0.24,2.66c0.38,2.5,1.17,9.3,1.17,9.3s1.38,0.94,2.56,0.19c0,0,3.1-2.66,4.25-3.62c0.53-2.12,3.06-14.14,2.79-15.22
			c-0.5-2.03-10.68-6.94-11.16-7.92L17.89,39.43z"/>
		<path id="XMLID_183_" class="st31" d="M20.57,19.22c0,0,0.17,3.02,0.11,3.24c-0.06,0.22-1.19,0.43-1.5,0.7
			c-0.32,0.26,1.63,3.33,2.63,3.79c1,0.46,4.08-0.69,4.3-2.23c0.2-1.41-0.5-2.68-0.91-3.07c-0.28-0.06,0.36-1.38,0.36-1.38
			C24.21,19.84,20.57,19.22,20.57,19.22z"/>
		<g>
			<path class="st70" d="M18.68,33.77c0,0,0.08,0.97-0.21,2.02c-0.36,1.3-0.29,2.45-0.87,4.4c0.06,0.27,0.71,0.9,3.38,1.2
				c0.53,0.06,1.08,0.05,1.63-0.01c0.24-2.05,0.58-5.34,0.67-8.42C21.05,33.24,18.68,33.77,18.68,33.77z"/>
			<g>
				<path class="st70" d="M27.93,37.11c-0.22-1.38-0.73-2.46-0.89-3.82c-0.02-0.18-0.19-0.3-0.46-0.38
					c0.09,1.62,0.42,3.26,1.34,4.83C27.95,37.53,27.96,37.32,27.93,37.11z"/>
				<path class="st59" d="M26.58,32.91c-0.66-0.2-1.95-0.12-3.31,0.05c-0.09,3.08-0.42,6.38-0.67,8.42
					c2.55-0.28,5.06-1.77,5.32-3.65C27,36.17,26.66,34.53,26.58,32.91z"/>
			</g>
		</g>
		<g>
			<g>
				<path class="st58" d="M26.62,33.53c-0.2-2.11,0.08-4.22,0.05-6.11c-0.03-1.75-1.17-3.7-2.31-5.22
					c-0.02,0.51-0.13,1.42-0.71,1.68c-0.9,0.4-1.97-0.01-2.91-0.5c1.08,1.1,2.04,2.62,2.33,4.64c0.25,1.74,0.25,4.09,0.13,6.43
					C24.35,34.35,25.55,34.08,26.62,33.53z"/>
				<path class="st70" d="M26.62,33.53c0.14-0.07,0.28-0.15,0.41-0.23c0,0,0.99-8.66-1.47-11.16c-0.19-0.19-0.45-0.3-0.73-0.31
					c-0.17,0-0.35,0-0.47,0.01c0,0,0.01,0.15,0,0.36c1.14,1.52,2.28,3.47,2.31,5.22C26.7,29.31,26.42,31.41,26.62,33.53z"/>
			</g>
			<path class="st70" d="M23.08,28.02c-0.3-2.02-1.26-3.53-2.33-4.64c-0.31-0.16-0.61-0.33-0.88-0.48
				c-0.94,0.14-2.02,0.64-2.17,1.16c-0.17,0.6-0.56,3.44,0.25,5.6c0.81,2.16,0.41,3.62,0.88,4.55c0,0,2.05,0.46,4.38,0.24
				C23.33,32.11,23.34,29.75,23.08,28.02z"/>
		</g>
		<path id="XMLID_176_" class="st57" d="M25.88,15.81L25.88,15.81c-0.28-1.79-1.48-3-3.32-2.9c-1.96,0.11-3.47,1.79-3.36,3.75
			c0.06,1.15,0.67,2.12,1.55,2.73c0,0,0.17,0.49,0.28,0.63c0.69,0.93,2.23,1.3,3.16,1.3c0.5,0,1.04-0.2,1.36-1.04
			C26.2,18.57,26.03,16.7,25.88,15.81z"/>
		<path id="XMLID_174_" class="st59" d="M25.93,13.67c-0.33-1.89-2.43-1.82-4.08-1.48c-1.63,0.34-2.9,1.82-3.05,3.48
			c-0.14,1.49,0.67,2.8,1.77,3.55c-0.04-0.13-1.06-1.64-0.02-1.97c0.16,0.19,0.17,0.63,0.18,0.93c0,0,0.52-0.02,0.52-0.63
			c0-0.31-0.11-0.71,0.16-1.11c0.22-0.32,0.76-0.41,0.85-1.18C22.26,15.26,24.97,12.21,25.93,13.67z"/>
		<path class="st59" d="M21.28,19.88c0,0,1.02-3.98,3.06-5.36c0.77-0.51,0.89-0.64,1.36-0.69c0.22-0.02-1.09-0.7-1.57-0.7
			c-0.76,0-4.08,2.73-4.37,3.37C19.48,17.14,19.77,18.17,21.28,19.88z"/>
		<path id="XMLID_164_" class="st57" d="M25.3,41.9c-0.44-0.16-0.77-0.46-1.41-0.63c-0.56-0.15-0.93-0.27-1.39-0.54
			c-0.47-0.28-1.41-1.7-2.09-3.15c-0.79-1.71-1.19-4.09-1.21-5.15c-0.06-2.27,0.44-5.02,0.64-6.09c0.25-1.28-0.34-2.22-0.96-2.6
			c-0.73-0.45-1.33-0.28-1.61,1.49c-0.28,1.77-0.61,5.06-0.37,7.48c0.12,1.18,0.39,3.01,1.4,5.21c0.71,1.54,1.47,2.7,2.51,4.04
			c0.28,0.37,0.4,0.71,0.85,1.47c0.45,0.76,1.16,1.53,1.81,1.88c0.65,0.36,0.94,0.38,1.07,0.28c0.16-0.13,0.1-0.31-0.17-0.51
			c-0.28-0.2-0.77-0.48-1.21-1.06c0,0,0.59,0.46,0.96,0.7s0.78,0.42,1.07,0.51c0.37,0.11,0.82-0.24,0.54-0.45
			c-0.28-0.21-0.54-0.29-1.1-0.66c-0.5-0.34-0.8-0.68-0.8-0.68s0.62,0.37,1.19,0.58c0.58,0.21,0.86,0.18,1.04,0.15
			c0.18-0.03,0.38-0.31,0-0.52c-0.34-0.19-0.84-0.28-1.43-0.74c-0.43-0.33-0.68-0.63-0.58-0.65c0.11-0.02,0.34,0.19,0.81,0.28
			c0.44,0.08,0.93-0.1,0.95-0.35C25.85,41.94,25.74,42.05,25.3,41.9z"/>
		<path id="XMLID_160_" class="st58" d="M19,23.54c0.71,0.39,1.27,1.49,0.86,3.37c-0.42,1.88-0.64,5.02-0.35,6.65
			c0.29,1.63,0.65,3.67,2.04,6.04c0,0-0.24,0.98-1.62,1.16c0,0-1.83-2.22-2.7-5.55c-0.87-3.34-0.47-7.29-0.3-9.06
			C17.1,24.37,17.66,22.8,19,23.54z"/>
		<path class="st59" d="M20.13,17.84l2.23,3.1c0,0,1.35,0.51,1.93,0.51s1-0.5,1.37-0.13s0.89,0.19,1.02,0.73
			c0.13,0.53-0.12,2.51-0.54,3.21c-0.41,0.71-2.25,2.23-4.95,0.55c-1.11-0.69-2.65-2.08-3.49-1.88c-0.19,0.05-0.4,0.32-0.4,0.32
			l0.48-1.72L20.13,17.84z"/>
	</g>
</g>
<g id="Layer_2" class="st112">
</g>
</svg>
