<?xml version="1.0" encoding="utf-8"?>
<!-- Generator: Adobe Illustrator 23.1.0, SVG Export Plug-In . SVG Version: 6.00 Build 0)  -->
<svg version="1.1" xmlns="http://www.w3.org/2000/svg" xmlns:xlink="http://www.w3.org/1999/xlink" x="0px" y="0px"
	 viewBox="0 0 100 100" style="enable-background:new 0 0 100 100;" xml:space="preserve">
<style type="text/css">
	.st0{fill:#7FA8E6;}
	.st1{opacity:0.15;fill:#032060;}
	.st2{fill:url(#SVGID_1_);}
	.st3{fill:url(#SVGID_2_);}
	.st4{fill:url(#SVGID_3_);}
	.st5{fill:url(#SVGID_4_);}
	.st6{fill:url(#SVGID_5_);}
	.st7{fill:url(#SVGID_6_);}
	.st8{fill:url(#SVGID_7_);}
	.st9{fill:url(#SVGID_8_);}
	.st10{fill:url(#SVGID_9_);}
	.st11{fill:url(#SVGID_10_);}
	.st12{fill:url(#SVGID_11_);}
	.st13{fill:#4F9FDB;}
	.st14{fill:#FFFFFF;}
	.st15{fill:url(#SVGID_12_);}
	.st16{fill:#001A46;}
	.st17{fill:url(#SVGID_13_);}
	.st18{fill:url(#SVGID_14_);}
	.st19{fill:url(#SVGID_15_);}
	.st20{opacity:0.15;}
	.st21{fill:url(#SVGID_16_);}
	.st22{fill:url(#SVGID_17_);}
	.st23{fill:url(#SVGID_18_);}
	.st24{fill:url(#SVGID_19_);}
	.st25{fill:url(#SVGID_20_);}
	.st26{fill:url(#SVGID_21_);}
	.st27{fill:url(#SVGID_22_);}
	.st28{fill:url(#SVGID_23_);}
	.st29{fill:url(#SVGID_24_);}
	.st30{fill:url(#SVGID_25_);}
	.st31{fill:#032060;}
	.st32{fill:#2A4FDD;}
	.st33{fill:#A0B5FF;}
	.st34{fill:url(#SVGID_26_);}
	.st35{fill:url(#SVGID_27_);}
	.st36{fill:#0B2DAA;}
	.st37{fill:url(#SVGID_28_);}
	.st38{fill:#EBF2FD;}
	.st39{opacity:0.3;fill:none;stroke:url(#SVGID_29_);stroke-miterlimit:10;}
	.st40{fill:none;}
	.st41{fill:url(#SVGID_30_);}
	.st42{fill:url(#SVGID_31_);}
	.st43{fill:url(#SVGID_32_);}
	.st44{fill:url(#SVGID_33_);}
	.st45{fill:url(#SVGID_34_);}
	.st46{fill:url(#SVGID_35_);}
	.st47{fill:url(#SVGID_36_);}
	.st48{fill:url(#SVGID_37_);}
	.st49{fill:url(#SVGID_38_);}
	.st50{fill:#DCEEFF;}
	.st51{fill:url(#XMLID_31_);}
	.st52{fill:url(#XMLID_32_);}
	.st53{fill:url(#XMLID_33_);}
	.st54{fill:url(#XMLID_34_);}
	.st55{fill:url(#XMLID_35_);}
	.st56{fill:#031F60;}
	.st57{fill:#FFA8A7;}
	.st58{fill:#597BC6;}
	.st59{fill:#2D2979;}
	.st60{fill:#F28F8F;}
	.st61{fill:#C8DBDA;}
	.st62{fill:url(#SVGID_39_);}
	.st63{opacity:0.15;fill:#6B99D1;}
	.st64{fill:url(#XMLID_36_);}
	.st65{fill:url(#XMLID_37_);}
	.st66{fill:url(#XMLID_38_);}
	.st67{fill:url(#XMLID_39_);}
	.st68{fill:url(#XMLID_40_);}
	.st69{fill:url(#XMLID_41_);}
	.st70{fill:#EFF6FE;}
	.st71{fill:#AAD1FC;}
	.st72{fill:#AEB5B7;}
	.st73{fill:#C8E2FF;}
	.st74{fill:url(#SVGID_40_);}
	.st75{fill:url(#SVGID_41_);}
	.st76{fill:url(#SVGID_42_);}
	.st77{opacity:0.7;fill:#FFFFFF;}
	.st78{fill:url(#SVGID_43_);}
	.st79{fill:url(#SVGID_44_);}
	.st80{fill:url(#SVGID_45_);}
	.st81{fill:url(#SVGID_46_);}
	.st82{fill:url(#SVGID_47_);}
	.st83{fill:url(#SVGID_48_);}
	.st84{fill:url(#SVGID_49_);}
	.st85{fill:url(#SVGID_50_);}
	.st86{fill:url(#SVGID_51_);}
	.st87{fill:url(#SVGID_52_);}
	.st88{fill:url(#SVGID_53_);}
	.st89{fill:url(#SVGID_54_);}
	.st90{fill:url(#SVGID_55_);}
	.st91{fill:url(#SVGID_56_);}
	.st92{fill:url(#SVGID_57_);}
	.st93{fill:url(#SVGID_58_);}
	.st94{fill:url(#SVGID_59_);}
	.st95{fill:url(#SVGID_60_);}
	.st96{fill:url(#SVGID_61_);}
	.st97{fill:url(#SVGID_62_);}
	.st98{fill:url(#SVGID_63_);}
	.st99{fill:url(#SVGID_64_);}
	.st100{fill:url(#SVGID_65_);}
	.st101{fill:url(#SVGID_66_);}
	.st102{fill:url(#SVGID_67_);}
	.st103{fill:url(#SVGID_68_);}
	.st104{fill:url(#SVGID_69_);}
	.st105{fill:url(#SVGID_70_);}
	.st106{fill:url(#SVGID_71_);}
	.st107{fill:url(#SVGID_72_);}
	.st108{fill:url(#SVGID_73_);}
	.st109{fill:url(#SVGID_74_);}
	.st110{fill:url(#SVGID_75_);}
	.st111{fill:url(#SVGID_76_);}
	.st112{display:none;}
	.st113{display:inline;fill:none;stroke:#EF4136;stroke-miterlimit:10;}
</style>
<g id="Layer_1">
	<g class="st20">
		<linearGradient id="SVGID_1_" gradientUnits="userSpaceOnUse" x1="32.969" y1="15.7068" x2="36.1458" y2="15.7068">
			<stop  offset="0" style="stop-color:#2484C6"/>
			<stop  offset="0.0142" style="stop-color:#2484C6;stop-opacity:0.9858"/>
			<stop  offset="1" style="stop-color:#2484C6;stop-opacity:0"/>
		</linearGradient>
		<path class="st2" d="M33.49,16.55c0.04-0.02,0.07-0.04,0.11-0.06c0.01,0.04,0.02,0.07,0.03,0.1c-0.05,0.04-0.1,0.09-0.15,0.14
			c-0.25,0.27-0.41,0.54-0.35,0.61c0.06,0.07,0.31-0.08,0.56-0.35c0.04-0.04,0.08-0.09,0.11-0.13c0.19,0.17,0.48,0.19,0.8,0.04
			c0.32-0.15,0.6-0.45,0.79-0.79c0.03,0.01,0.07,0.01,0.1,0.02c0.25,0.02,0.5-0.06,0.56-0.19c0.06-0.13-0.1-0.25-0.35-0.28
			c-0.04,0-0.09,0-0.13,0c0.01-0.05,0.02-0.1,0.03-0.14c0.01,0,0.01-0.01,0.02-0.01c0.29-0.14,0.52-0.35,0.52-0.46
			c0-0.12-0.23-0.1-0.52,0.04c-0.01,0-0.01,0.01-0.02,0.01c-0.01-0.04-0.02-0.07-0.03-0.11c0.02-0.02,0.03-0.03,0.05-0.05
			c0.25-0.27,0.47-0.61,0.41-0.68c-0.06-0.07-0.37,0.15-0.62,0.42c-0.01,0.01-0.02,0.02-0.03,0.03c-0.1-0.08-0.23-0.13-0.37-0.13
			l0,0v-0.42c0,0-0.06-0.26-0.45-0.07c-0.39,0.19-0.45,0.51-0.45,0.51v0.44l0,0c-0.13,0.13-0.24,0.29-0.32,0.45
			c-0.04-0.01-0.07-0.02-0.11-0.02c-0.25-0.02-0.5,0.06-0.56,0.19c-0.06,0.13,0.1,0.25,0.35,0.28c0.05,0,0.1,0,0.15,0
			c-0.01,0.04-0.02,0.09-0.03,0.13c-0.03,0.01-0.07,0.03-0.11,0.05c-0.29,0.14-0.52,0.35-0.52,0.46
			C32.97,16.71,33.2,16.69,33.49,16.55z M34.6,15.32c0.28-0.13,0.5,0.01,0.5,0.31c0,0.3-0.22,0.66-0.5,0.79s-0.5-0.01-0.5-0.31
			C34.1,15.81,34.32,15.45,34.6,15.32z"/>
		<linearGradient id="SVGID_2_" gradientUnits="userSpaceOnUse" x1="30.8246" y1="15.6963" x2="38.2744" y2="15.6963">
			<stop  offset="0" style="stop-color:#2484C6"/>
			<stop  offset="0.0142" style="stop-color:#2484C6;stop-opacity:0.9858"/>
			<stop  offset="1" style="stop-color:#2484C6;stop-opacity:0"/>
		</linearGradient>
		<path class="st3" d="M32.68,19.57c0.83,0.71,1.63,0.77,1.66,0.77l0.22,0.02l0.22-0.23c1.47-1.57,2.54-3.6,3.09-5.85
			c0.41-1.68,0.4-2.89,0.4-2.94l0-0.24l-0.21-0.03c-0.08-0.01-1.94-0.24-3.61,0.64c-1.65,0.87-3.32,2.66-3.39,2.74l-0.23,0.25
			l0.02,0.26C31.01,17.61,31.93,18.93,32.68,19.57z M34.49,12.57c1.1-0.58,2.39-0.57,2.89-0.54c-0.02,0.42-0.09,1.33-0.37,2.44
			c-0.47,1.89-1.29,3.52-2.45,4.85c-0.26-0.06-0.72-0.23-1.2-0.65c-0.64-0.56-1.42-1.69-1.61-3.93
			C32.23,14.25,33.39,13.15,34.49,12.57z"/>
		<linearGradient id="SVGID_3_" gradientUnits="userSpaceOnUse" x1="20.1723" y1="20.888" x2="29.586" y2="20.888">
			<stop  offset="0" style="stop-color:#2484C6"/>
			<stop  offset="0.0142" style="stop-color:#2484C6;stop-opacity:0.9858"/>
			<stop  offset="1" style="stop-color:#2484C6;stop-opacity:0"/>
		</linearGradient>
		<polygon class="st4" points="29.59,16.87 20.17,22.3 20.17,24.91 29.59,19.48 		"/>
		<linearGradient id="SVGID_4_" gradientUnits="userSpaceOnUse" x1="24.6816" y1="22.0638" x2="29.586" y2="22.0638">
			<stop  offset="0" style="stop-color:#2484C6"/>
			<stop  offset="0.0142" style="stop-color:#2484C6;stop-opacity:0.9858"/>
			<stop  offset="1" style="stop-color:#2484C6;stop-opacity:0"/>
		</linearGradient>
		<polygon class="st5" points="29.59,21.33 29.59,19.97 24.68,22.8 24.68,24.16 		"/>
		<linearGradient id="SVGID_5_" gradientUnits="userSpaceOnUse" x1="31.9208" y1="25.378" x2="39.5839" y2="25.378">
			<stop  offset="0" style="stop-color:#2484C6"/>
			<stop  offset="0.0142" style="stop-color:#2484C6;stop-opacity:0.9858"/>
			<stop  offset="1" style="stop-color:#2484C6;stop-opacity:0"/>
		</linearGradient>
		<polygon class="st6" points="31.92,28.65 39.58,24.23 39.58,22.1 31.92,26.53 		"/>
		<linearGradient id="SVGID_6_" gradientUnits="userSpaceOnUse" x1="21.7181" y1="32.4951" x2="39.9091" y2="32.4951">
			<stop  offset="0" style="stop-color:#2484C6"/>
			<stop  offset="0.0142" style="stop-color:#2484C6;stop-opacity:0.9858"/>
			<stop  offset="1" style="stop-color:#2484C6;stop-opacity:0"/>
		</linearGradient>
		<path class="st7" d="M39.75,24.94c-0.1-0.06-0.22-0.06-0.33,0L21.88,35.06c-0.1,0.06-0.16,0.17-0.16,0.28v4.43
			c0,0.12,0.06,0.22,0.16,0.28c0.05,0.03,0.11,0.04,0.16,0.04s0.11-0.01,0.16-0.04l17.54-10.13c0.1-0.06,0.16-0.17,0.16-0.28v-4.43
			C39.91,25.1,39.85,24.99,39.75,24.94z"/>
		<linearGradient id="SVGID_7_" gradientUnits="userSpaceOnUse" x1="31.9208" y1="35.8173" x2="39.5839" y2="35.8173">
			<stop  offset="0" style="stop-color:#2484C6"/>
			<stop  offset="0.0142" style="stop-color:#2484C6;stop-opacity:0.9858"/>
			<stop  offset="1" style="stop-color:#2484C6;stop-opacity:0"/>
		</linearGradient>
		<polygon class="st8" points="39.58,32.54 31.92,36.97 31.92,39.09 39.58,34.67 		"/>
		<linearGradient id="SVGID_8_" gradientUnits="userSpaceOnUse" x1="21.7181" y1="42.9343" x2="39.9091" y2="42.9343">
			<stop  offset="0" style="stop-color:#2484C6"/>
			<stop  offset="0.0142" style="stop-color:#2484C6;stop-opacity:0.9858"/>
			<stop  offset="1" style="stop-color:#2484C6;stop-opacity:0"/>
		</linearGradient>
		<path class="st9" d="M39.42,35.38L21.88,45.5c-0.1,0.06-0.16,0.17-0.16,0.28v4.43c0,0.12,0.06,0.22,0.16,0.28
			c0.05,0.03,0.11,0.04,0.16,0.04s0.11-0.01,0.16-0.04l17.54-10.13c0.1-0.06,0.16-0.17,0.16-0.28v-4.43c0-0.12-0.06-0.22-0.16-0.28
			C39.65,35.32,39.52,35.32,39.42,35.38z"/>
		<linearGradient id="SVGID_9_" gradientUnits="userSpaceOnUse" x1="31.9208" y1="46.9376" x2="39.5839" y2="46.9376">
			<stop  offset="0" style="stop-color:#2484C6"/>
			<stop  offset="0.0142" style="stop-color:#2484C6;stop-opacity:0.9858"/>
			<stop  offset="1" style="stop-color:#2484C6;stop-opacity:0"/>
		</linearGradient>
		<polygon class="st10" points="39.58,43.66 31.92,48.09 31.92,50.21 39.58,45.79 		"/>
		<linearGradient id="SVGID_10_" gradientUnits="userSpaceOnUse" x1="21.7181" y1="54.0546" x2="39.9091" y2="54.0546">
			<stop  offset="0" style="stop-color:#2484C6"/>
			<stop  offset="0.0142" style="stop-color:#2484C6;stop-opacity:0.9858"/>
			<stop  offset="1" style="stop-color:#2484C6;stop-opacity:0"/>
		</linearGradient>
		<path class="st11" d="M39.42,46.5L21.88,56.62c-0.1,0.06-0.16,0.17-0.16,0.28v4.43c0,0.12,0.06,0.22,0.16,0.28
			c0.05,0.03,0.11,0.04,0.16,0.04s0.11-0.01,0.16-0.04l17.54-10.13c0.1-0.06,0.16-0.17,0.16-0.28v-4.43c0-0.12-0.06-0.22-0.16-0.28
			C39.65,46.44,39.52,46.44,39.42,46.5z"/>
	</g>
	<g>
		<g>
			<path class="st31" d="M35.41,19.27l-0.22-0.02c-0.03,0-0.83-0.06-1.66-0.77c-0.75-0.64-1.67-1.96-1.84-4.62l-0.02-0.26l0.23-0.25
				c0.07-0.08,1.74-1.87,3.39-2.74c1.68-0.88,3.53-0.65,3.61-0.64L39.12,10l0,0.24c0,0.05,0.01,1.26-0.4,2.94
				c-0.56,2.25-1.62,4.28-3.09,5.85L35.41,19.27z M32.6,13.65c0.19,2.24,0.98,3.37,1.61,3.93c0.48,0.42,0.94,0.59,1.2,0.65
				c1.16-1.33,1.98-2.95,2.45-4.85c0.28-1.12,0.35-2.02,0.37-2.44c-0.5-0.03-1.79-0.04-2.89,0.54
				C34.24,12.06,33.08,13.16,32.6,13.65z"/>
		</g>
		<g>
			<polygon class="st32" points="40.33,24.12 24.35,33.35 24.35,37.78 40.33,28.55 			"/>
			<polygon class="st31" points="30.43,15.77 21.02,21.21 21.02,23.81 30.43,18.38 			"/>
			<polygon class="st31" points="30.43,18.87 25.53,21.71 25.53,23.06 30.43,20.23 			"/>
			<polygon class="st32" points="40.43,21.01 32.77,25.43 32.77,27.56 40.43,23.13 			"/>
			<path class="st31" d="M22.89,39c-0.06,0-0.11-0.01-0.16-0.04c-0.1-0.06-0.16-0.17-0.16-0.28v-4.43c0-0.12,0.06-0.22,0.16-0.28
				l17.54-10.13c0.1-0.06,0.22-0.06,0.33,0c0.1,0.06,0.16,0.17,0.16,0.28v4.43c0,0.12-0.06,0.22-0.16,0.28L23.05,38.96
				C23,38.99,22.95,39,22.89,39z M23.22,34.44v3.68l16.89-9.75v-3.68L23.22,34.44z"/>
		</g>
		<g>
			<polygon class="st32" points="40.33,34.56 22.89,44.69 22.89,49.12 40.33,38.99 			"/>
			<polygon class="st32" points="40.43,31.45 32.77,35.87 32.77,38 40.43,33.57 			"/>
			<path class="st31" d="M22.89,49.44c-0.06,0-0.11-0.01-0.16-0.04c-0.1-0.06-0.16-0.17-0.16-0.28v-4.43c0-0.12,0.06-0.22,0.16-0.28
				l17.54-10.13c0.1-0.06,0.22-0.06,0.33,0c0.1,0.06,0.16,0.17,0.16,0.28v4.43c0,0.12-0.06,0.22-0.16,0.28L23.05,49.4
				C23,49.43,22.95,49.44,22.89,49.44z M23.22,44.88v3.68l16.89-9.75v-3.68L23.22,44.88z"/>
		</g>
		<g>
			<polygon class="st32" points="40.43,42.57 32.77,46.99 32.77,49.12 40.43,44.69 			"/>
			<path class="st31" d="M22.89,60.56c-0.06,0-0.11-0.01-0.16-0.04c-0.1-0.06-0.16-0.17-0.16-0.28v-4.43c0-0.12,0.06-0.22,0.16-0.28
				L40.27,45.4c0.1-0.06,0.22-0.06,0.33,0c0.1,0.06,0.16,0.17,0.16,0.28v4.43c0,0.12-0.06,0.22-0.16,0.28L23.05,60.52
				C23,60.55,22.95,60.56,22.89,60.56z M23.22,56v3.68l16.89-9.75v-3.68L23.22,56z"/>
		</g>
		<polygon class="st32" points="25.73,54.11 25.73,58.54 40.33,50.11 40.33,45.68 		"/>
		<g>
			<path class="st31" d="M35.41,17.38l-0.13-0.01c-0.02,0-0.5-0.04-0.99-0.46c-0.45-0.38-1-1.17-1.1-2.76L33.18,14l0.14-0.15
				c0.04-0.05,1.04-1.11,2.02-1.63c1-0.53,2.11-0.39,2.15-0.38l0.12,0.02l0,0.14c0,0.03,0.01,0.75-0.24,1.75
				c-0.33,1.35-0.97,2.55-1.84,3.49L35.41,17.38z"/>
		</g>
	</g>
	<g id="XMLID_2116_">
		<g id="XMLID_489_">
			<path id="XMLID_4154_" class="st1" d="M79.64,84.99L54.21,99.67c-0.38,0.22-0.89,0.33-1.39,0.33c-0.5,0-1-0.11-1.39-0.33
				L26,84.99c-0.38-0.22-0.58-0.51-0.58-0.8c0-0.21,0.1-0.42,0.3-0.6c0.07-0.07,0.17-0.14,0.27-0.2l25.43-14.68
				c0.76-0.44,2.01-0.44,2.78,0l25.43,14.68C80.4,83.83,80.4,84.55,79.64,84.99z"/>
			<path id="XMLID_2069_" class="st50" d="M79.64,76.69L54.21,91.37c-0.38,0.22-0.89,0.33-1.39,0.33c-0.5,0-1-0.11-1.38-0.33
				L26,76.69c-0.38-0.22-0.58-0.51-0.58-0.8c0-0.29,0.19-0.58,0.58-0.8l4.04-2.33l21.39-12.35c0.76-0.44,2.01-0.44,2.78,0
				l25.43,14.68C80.4,75.53,80.4,76.25,79.64,76.69z"/>
			<linearGradient id="XMLID_31_" gradientUnits="userSpaceOnUse" x1="25.4249" y1="80.9862" x2="52.8204" y2="80.9862">
				<stop  offset="0" style="stop-color:#EBF2FD"/>
				<stop  offset="1" style="stop-color:#A0B5FF"/>
			</linearGradient>
			<path id="XMLID_2060_" class="st51" d="M52.82,85.91v5.79c-0.5,0-1-0.11-1.38-0.33L26,76.69c-0.38-0.22-0.58-0.51-0.58-0.8v-5.02
				c0-0.21,0.1-0.42,0.3-0.6l4.31,2.49L52.82,85.91z"/>
			<linearGradient id="XMLID_32_" gradientUnits="userSpaceOnUse" x1="52.8204" y1="80.9862" x2="80.216" y2="80.9862">
				<stop  offset="0" style="stop-color:#EBF2FD"/>
				<stop  offset="1" style="stop-color:#A0B5FF"/>
			</linearGradient>
			<path id="XMLID_2056_" class="st52" d="M52.82,85.91v5.79c0.5,0,1-0.11,1.38-0.33l25.44-14.68c0.38-0.22,0.58-0.51,0.58-0.8
				v-5.02c0-0.21-0.1-0.42-0.3-0.6l-4.31,2.49L52.82,85.91z"/>
			<linearGradient id="XMLID_33_" gradientUnits="userSpaceOnUse" x1="25.4249" y1="70.877" x2="80.212" y2="70.877">
				<stop  offset="0" style="stop-color:#EBF2FD"/>
				<stop  offset="1" style="stop-color:#A0B5FF"/>
			</linearGradient>
			<path id="XMLID_2035_" class="st53" d="M79.64,71.68L54.21,86.36c-0.38,0.22-0.89,0.33-1.39,0.33c-0.5,0-1-0.11-1.39-0.33
				L26,71.68c-0.38-0.22-0.58-0.51-0.58-0.8c0-0.21,0.1-0.42,0.3-0.6c0.07-0.07,0.17-0.14,0.27-0.2L51.43,55.4
				c0.76-0.44,2.01-0.44,2.78,0l25.43,14.68C80.4,70.52,80.4,71.24,79.64,71.68z"/>
			<g id="XMLID_2030_">
				<path class="st14" d="M52.82,56.06c0.34,0,0.68,0.07,0.89,0.2l25.32,14.61L53.71,85.5c-0.21,0.12-0.53,0.19-0.89,0.19
					c-0.35,0-0.67-0.07-0.89-0.2L26.61,70.88l25.32-14.61C52.15,56.14,52.48,56.06,52.82,56.06 M52.82,55.06
					c-0.5,0-1,0.11-1.39,0.33L26,70.07c-0.11,0.06-0.2,0.13-0.27,0.2c-0.2,0.18-0.3,0.4-0.3,0.6c0,0.29,0.19,0.58,0.58,0.8
					l25.43,14.68c0.38,0.22,0.89,0.33,1.39,0.33c0.5,0,1-0.11,1.39-0.33l25.43-14.68c0.76-0.44,0.76-1.16,0-1.6L54.21,55.4
					C53.82,55.17,53.32,55.06,52.82,55.06L52.82,55.06z"/>
			</g>
			<linearGradient id="XMLID_34_" gradientUnits="userSpaceOnUse" x1="31.6646" y1="70.8773" x2="73.9739" y2="70.8773">
				<stop  offset="0" style="stop-color:#2A4FDD"/>
				<stop  offset="0.6863" style="stop-color:#102F88"/>
				<stop  offset="1" style="stop-color:#032060"/>
			</linearGradient>
			<path id="XMLID_1781_" class="st54" d="M51.89,58.89L32.05,70.34c-0.51,0.29-0.51,0.77,0,1.07l19.85,11.46
				c0.51,0.29,1.34,0.29,1.85,0l19.85-11.46c0.51-0.29,0.51-0.77,0-1.07L53.74,58.89C53.23,58.59,52.4,58.59,51.89,58.89z"/>
			<linearGradient id="XMLID_35_" gradientUnits="userSpaceOnUse" x1="52.8191" y1="65.0836" x2="73.9739" y2="65.0836">
				<stop  offset="0" style="stop-color:#032060"/>
				<stop  offset="0.0718" style="stop-color:#0D2C7F"/>
				<stop  offset="0.1566" style="stop-color:#16379C"/>
				<stop  offset="0.2515" style="stop-color:#1D40B4"/>
				<stop  offset="0.3589" style="stop-color:#2346C6"/>
				<stop  offset="0.4859" style="stop-color:#274BD3"/>
				<stop  offset="0.6516" style="stop-color:#294EDB"/>
				<stop  offset="1" style="stop-color:#2A4FDD"/>
			</linearGradient>
			<path id="XMLID_1775_" class="st55" d="M73.59,70.34L53.74,58.89c-0.26-0.15-0.59-0.22-0.93-0.22v0.94l20.61,11.9l0.16-0.09
				C74.1,71.12,74.1,70.64,73.59,70.34z"/>
			<path id="XMLID_1772_" class="st56" d="M52.82,58.66c-0.33,0-0.67,0.07-0.93,0.22L32.05,70.34c-0.51,0.29-0.51,0.77,0,1.07
				l0.16,0.09l20.61-11.9L52.82,58.66z"/>
		</g>
		<g>
			<path id="XMLID_587_" class="st57" d="M68.38,32.35c-0.54-0.14-0.95-0.45-1.73-0.58c-0.68-0.11-1.12-0.21-1.7-0.49
				c-0.58-0.27-1.83-2.08-2.78-3.72c-1.12-1.92-1.85-4.52-1.91-5.76c-0.09-2.11,0.09-6.33,0.01-7.8c-0.08-1.46-0.67-1.93-1.44-2.31
				c-0.91-0.44-1.64-0.27-1.78,1.84c-0.14,2.11-0.26,6.18,0.29,9.01c0.27,1.37,0.88,3.52,2.32,6c1,1.73,2.07,2.9,3.43,4.36
				c0.37,0.4,0.55,0.79,1.17,1.63c0.62,0.84,1.54,1.67,2.34,2.02c0.8,0.35,1.15,0.35,1.29,0.21c0.18-0.17,0.09-0.38-0.26-0.58
				c-0.35-0.2-0.96-0.47-1.54-1.12c0,0,0.74,0.48,1.21,0.72c0.47,0.25,0.96,0.41,1.32,0.49c0.45,0.09,0.93-0.38,0.59-0.59
				c-0.35-0.21-0.67-0.28-1.36-0.66c-0.63-0.34-1.02-0.71-1.02-0.71s0.77,0.37,1.47,0.55c0.7,0.19,1.03,0.12,1.24,0.06
				c0.21-0.06,0.41-0.41-0.06-0.62c-0.42-0.18-1.02-0.24-1.77-0.71c-0.54-0.34-0.87-0.66-0.75-0.7c0.12-0.04,0.43,0.19,0.98,0.24
				c0.53,0.05,1.08-0.22,1.08-0.52C69.04,32.34,68.92,32.48,68.38,32.35z"/>
			<path id="XMLID_586_" class="st58" d="M60.45,14.81c0.03-1.17-0.06-1.76-0.55-2.43c-0.49-0.66-1.06-0.8-1.06-0.8l-3.39,5.66
				l0.36,3.59c1.99,1.27,4.56-0.45,4.56-0.45S60.42,15.9,60.45,14.81z"/>
			<path id="XMLID_583_" class="st59" d="M52.75,61.65c0,0-0.15,0.55-0.34,0.98c-0.19,0.44-0.41,1.17-0.38,1.55
				c0.03,0.38,0.82,1.04,1.39,1.2c0.57,0.16,1.38,0.92,1.65,1.39c0.38,0.67,1.58,1.31,2.41,1.34c0.83,0.03,1.77-0.03,2.02-0.33
				c0.25-0.3,0.03-0.71-1.5-2.18c-1.53-1.47-2.56-2.38-2.93-3.59L52.75,61.65z"/>
			<path id="XMLID_572_" class="st59" d="M48.62,66.17c-0.18,0.47-0.52,0.73-0.43,1.95c0.1,1.22-0.01,1.71-0.13,2.71
				c-0.12,1,0.39,2.37,0.87,3.01c0.48,0.64,1.78,0.77,2.2-0.36c0.41-1.13,0.51-2.09,0.22-3.23c-0.29-1.14,0.1-2.01-0.1-2.78
				c-0.19-0.76-0.46-1.29-0.46-1.29H48.62z"/>
			<path id="XMLID_571_" class="st0" d="M48.62,34.67c0.04,1.28,0.44,6.85,0.62,9.79c0.18,2.95,0.44,6.38,0.44,6.38
				s-0.73,2.33-1.06,4.85c-0.33,2.52,0,10.48,0,10.48s0.95,0.71,2.17,0c0,0,1.5-7.01,2.13-9.89c0.63-2.87,1.28-4.23,1.4-6.03
				c0.13-1.8,0.76-11.83,0.76-11.83l0.34,0.02l0.83,9.16c0,0-1.11,1.77-1.57,3.57c-0.47,1.8-1.93,10.48-1.93,10.48
				s1.02,1.15,2.32,0.36c0,0,5.09-11.65,5.56-12.8c0.46-1.15-0.21-17.57-0.21-17.57L48.62,34.67z"/>
			<path id="XMLID_568_" class="st58" d="M55.08,38.42c0,0,2.31-0.86,3.34-1.65c0,0-0.59,0.91-2.02,1.66
				c-0.12,1.21-0.15,9.17-0.15,9.17l-0.83-9.16L55.08,38.42z"/>
			<path id="XMLID_564_" class="st57" d="M51.69,9.9c0,0,0.14,2.79,0.08,3.04c-0.06,0.25-1.28,1.07-1.64,1.36
				c-0.36,0.29,1.93,2.55,3.04,3.06c1.11,0.51,4.64-0.83,4.7-2.57c0.06-1.73-0.6-3.18-1.14-3.26C56.19,11.46,51.69,9.9,51.69,9.9z"
				/>
			<path id="XMLID_561_" class="st60" d="M51.69,9.88l0.08,1.94c0,0,1.78,1.69,3.2,1.43c0.79-0.14,0.71-0.66,0.71-0.66v-1.63
				L51.69,9.88z"/>
			<path id="XMLID_560_" class="st33" d="M51.38,13.36c0,0,2.03,3.02,4.86,3.3c0.89-0.88,0.97-4.01-0.26-5.01
				c0,0,1.13-0.92,1.91-0.74c0,0,1.22,0.63,1.75,2.23c0.52,1.59,1.04,3.5,1,6.47c-0.05,2.96,0,12.02,0,12.02s-0.4,1.92-2.96,3.34
				c-2.56,1.42-4.46,1.56-6.19,1.16c-1.43-0.33-2.62-0.84-3.11-1.88c0.13-2.08,1.06-7.5,0.71-10.11c-0.35-2.61-0.9-4.56-1.04-6.68
				c-0.14-2.11,0.28-2.07,1.34-2.82C50.8,13.63,51.38,13.36,51.38,13.36z"/>
			<path id="XMLID_553_" class="st58" d="M56.23,16.66c0,0,0.24-1.34,0.24-2.07c-0.07-0.97-0.79-2.23-0.79-2.23v-0.78
				c0,0,0.56,0.09,1.03,0.67c0.48,0.58,1.2,1.84,1.02,3.08C57.75,15.33,57.39,16.05,56.23,16.66z"/>
			<path id="XMLID_548_" class="st33" d="M56.23,16.66c0.21-0.4,0.6-1.74,0.79-1.94c0.37-0.12,0.73,0.61,0.73,0.61
				s-0.01,0.78-0.48,1.22C56.8,17,56.23,16.66,56.23,16.66z"/>
			<path id="XMLID_544_" class="st61" d="M57.02,14.72c-0.19,0.2-0.58,1.54-0.79,1.94c0,0,0.22-0.38,0.43-0.65
				c0.21-0.27,0.47-0.79,1.09-0.69C57.75,15.33,57.39,14.6,57.02,14.72z"/>
			<path id="XMLID_496_" class="st57" d="M58.02,5.73L58.02,5.73c-0.33-2.17-1.9-3.81-4.13-3.69c-2.38,0.13-4.2,2.17-4.07,4.55
				c0.08,1.39,0.81,2.57,1.88,3.3c0,0,0.2,0.78,0.35,0.95c0.79,0.93,3.18,1.5,3.87,1.4c0.88-0.13,1.36-0.49,1.78-1.46
				C58.43,9.08,58.2,6.81,58.02,5.73z"/>
			<path id="XMLID_485_" class="st31" d="M57.69,3.98c-0.92-1.4-2.62-2.24-4.47-1.85c-1.13,0.23-2.1,0.93-2.71,1.86
				c-0.93,0.33-1.03,1.03-0.91,2.17c0.12,1.2,0.36,2.36,0.94,3.38c0.2,0.34,0.81,0.11,1.15,0.35c-0.05-0.15-1.17-1.83-0.01-2.2
				c0.18,0.21,0.23,0.54,0.24,0.88c0,0,0.58-0.05,0.45-0.73c-0.04-0.19-0.07-0.36-0.1-0.52c-0.1-0.52,0.03-1.05,0.33-1.5
				c0.24-0.36,0.45-0.85,0.3-1.41c0,0,1.44,0.64,3.27,0.25C56.95,4.52,57.48,4.23,57.69,3.98z"/>
			<path id="XMLID_484_" class="st31" d="M50.51,4c0,0-0.27-0.85,0.83-1.69c1.31-0.99,3.15-0.77,5.08,0
				c1.24,0.49,3.16-0.11,2.79,1.31c-0.55,2.08-4.56,2.26-6.31,0.81C52.78,4.39,51.51,3.77,50.51,4z"/>
			<path id="XMLID_270_" class="st57" d="M51.69,9.88c0,0-0.1,0.23-0.52,0.25c-0.78,0.04-1.7-1.42-1.07-2.41
				c0.4-0.62,1.29-0.4,1.58-0.03L51.69,9.88z"/>
			<path id="XMLID_43_" class="st58" d="M51.79,12.38c0.05,0.43,2.33,2.12,2.87,2.34c0.54,0.22,1.58,1.94,1.58,1.94
				c-0.81-0.14-1.48,0.19-2.07,0.81c0,0-3.23-1.36-3.75-3.53c0,0,0.6-1.16,0.69-1.46c0.09-0.3,0.33-0.64,0.67-0.66L51.79,12.38z"/>
			<path id="XMLID_19_" class="st33" d="M54.17,17.47c0,0,0.24-1.67,0.59-1.82c0.35-0.15,1.48,1.01,1.48,1.01
				C55.78,17.06,55.17,17.44,54.17,17.47z"/>
			<path id="XMLID_18_" class="st61" d="M54.75,15.65c-0.35,0.15-0.59,1.82-0.59,1.82s0.91-0.83,1.19-0.92
				c0.28-0.08,0.88,0.11,0.88,0.11S55.1,15.5,54.75,15.65z"/>
			<path id="XMLID_425_" class="st57" d="M51.61,38.87c-0.45-0.32-0.75-0.75-1.42-1.16c-0.59-0.36-0.83-0.52-1.21-1.03
				c-0.41-0.56-0.91-2.51-1.19-4.38c-0.33-2.2,0.02-5.06,0.35-6.27c0.66-2.44,2.13-5.77,2.59-7.16c0.46-1.39,0.1-2.04-0.48-2.68
				c-0.68-0.75-1.8-0.65-2.71,1.25c-0.91,1.91-2.16,5.44-2.69,8.27c-0.26,1.37-0.48,3.6-0.07,6.43c0.29,1.98,0.85,3.46,1.57,5.32
				c0.2,0.51,0.22,0.93,0.48,1.95c0.26,1.01,0.81,2.12,1.43,2.74c0.62,0.62,0.94,0.75,1.12,0.68c0.23-0.09,0.22-0.32-0.03-0.63
				c-0.25-0.32-0.72-0.8-1.02-1.61c0,0,0.51,0.72,0.86,1.12c0.34,0.4,0.74,0.74,1.05,0.94c0.38,0.25,1.01,0,0.76-0.33
				c-0.25-0.33-0.52-0.51-1.02-1.11c-0.46-0.55-0.68-1.04-0.68-1.04s0.58,0.63,1.16,1.06c0.58,0.43,0.91,0.49,1.13,0.52
				c0.22,0.03,0.53-0.23,0.18-0.59c-0.32-0.33-0.86-0.6-1.38-1.31c-0.37-0.52-0.56-0.94-0.44-0.93c0.13,0.01,0.33,0.33,0.82,0.59
				c0.47,0.24,1.08,0.2,1.2-0.08C52.08,39.14,52.06,39.19,51.61,38.87z"/>
			<path id="XMLID_292_" class="st58" d="M49.8,15.74c-1.1-0.25-2.16,0.38-3.02,2.27c-0.84,1.86-1.96,4.87-1.96,4.87
				s1.55,1.19,4.15,1c0,0,1.79-4.13,2.14-5.27C51.48,17.47,51.27,16.08,49.8,15.74z"/>
		</g>
		<linearGradient id="SVGID_11_" gradientUnits="userSpaceOnUse" x1="52.8165" y1="83.0896" x2="52.8165" y2="0.409">
			<stop  offset="0" style="stop-color:#2484C6"/>
			<stop  offset="0.0142" style="stop-color:#2484C6;stop-opacity:0.9858"/>
			<stop  offset="1" style="stop-color:#2484C6;stop-opacity:0"/>
		</linearGradient>
		<path class="st12" d="M54.21,11.82c-0.4,0.26-0.87,0.35-1.39,0.33c-0.01,0-0.01,0-0.02,0c-0.12,0-0.24,0-0.35-0.01
			c-0.01,0-0.01,0-0.02,0c-0.11-0.01-0.22-0.03-0.33-0.06c-0.07-0.02-0.14-0.04-0.21-0.06c-0.04-0.01-0.09-0.02-0.13-0.04
			c-0.11-0.04-0.22-0.09-0.32-0.15L31.66,0.41v70.47c0.01,0.23,0.15,0.4,0.38,0.53l19.85,11.46c0.3,0.14,0.6,0.21,0.9,0.22
			c0.01,0,0.02,0,0.03,0c0.31,0,0.62-0.07,0.93-0.22L73.43,71.5c0.37-0.2,0.54-0.38,0.54-0.63V0.41L54.21,11.82z"/>
	</g>
</g>
<g id="Layer_2" class="st112">
	<line class="st113" x1="-71.87" y1="64.73" x2="171.57" y2="150.73"/>
	<line class="st113" x1="11.91" y1="94.62" x2="238.24" y2="-2.75"/>
</g>
</svg>
